<svg width="24" height="96" viewBox="0 0 24 96" fill="none" xmlns="http://www.w3.org/2000/svg">
<g clip-path="url(#clip0_1_33)">
<path d="M15.14 5.04855C15.7108 4.48855 16.6267 4.49272 17.1925 5.05855L19.1483 7.01522C19.7125 7.59022 19.7042 8.51355 19.1292 9.07689L8.93083 19.0836C8.65833 19.3511 8.29167 19.5011 7.90917 19.5011H5.29167C4.85417 19.5011 4.5 19.1469 4.5 18.7094V16.1011C4.5 15.7094 4.6575 15.3344 4.93667 15.0594L15.14 5.04855ZM13.6383 8.27272L5.8125 15.9502C5.7725 15.9894 5.75 16.0436 5.75 16.0994V18.2502H7.90917C7.94583 18.2502 7.98083 18.2411 8.0125 18.2227L8.055 18.1902L15.88 10.5144L13.6383 8.27272ZM16.3083 5.94189C16.2275 5.86105 16.0967 5.86022 16.015 5.94022L14.5308 7.39689L16.7717 9.63772L18.2533 8.18439C18.3217 8.11772 18.3342 8.01439 18.2925 7.93689L18.26 7.89355L16.3083 5.94189Z" fill="#292E41"/>
</g>
<g clip-path="url(#clip1_1_33)">
<path d="M15.8721 35.0991C15.8721 33.9986 15.5964 33.2863 15.1551 32.8449C14.7138 32.4035 14.0015 32.1279 12.9009 32.1279H8.09619C7.92458 32.1279 7.76265 32.1345 7.6071 32.1532L7.58594 32.1556C6.69013 32.2323 6.10552 32.5251 5.73535 32.9604C5.35831 33.4039 5.125 34.0878 5.125 35.0991V38.1021C5.125 39.5498 5.42006 40.2143 5.81104 40.5557C6.22303 40.9154 6.90911 41.0732 8.09619 41.0732H8.39648L8.44613 41.0749C8.74283 41.0986 9.03452 41.2183 9.26156 41.4362L9.35514 41.5355L9.37712 41.5632L8.87988 41.9351L8.87663 41.9383L9.37712 41.5632L10.278 42.7643L10.3138 42.818L9.77913 43.1379L9.77751 43.1395L10.3138 42.818C10.3212 42.8304 10.3291 42.8407 10.3382 42.8498L10.37 42.8742L10.3781 42.8791L10.4196 42.8994C10.519 42.9364 10.633 42.8989 10.689 42.8091L10.7191 42.7643L11.62 41.5632L11.7127 41.4541C11.9424 41.2131 12.2642 41.0732 12.6006 41.0732H12.9009C13.9131 41.0732 14.5965 40.8413 15.0396 40.4653C15.4742 40.0965 15.7677 39.5124 15.8444 38.6123C15.845 38.6052 15.8452 38.5975 15.846 38.5903L16.467 38.6652L16.4784 38.666L15.846 38.5903C15.8647 38.4349 15.8721 38.2736 15.8721 38.1021V35.0991ZM17.1221 38.1021C17.1221 38.3057 17.1142 38.5196 17.0879 38.7393L17.0871 38.7384C16.9881 39.8561 16.5991 40.7813 15.8485 41.4183C15.1016 42.0521 14.0882 42.3232 12.9009 42.3232H12.6128L11.7192 43.5146C11.2785 44.1686 10.3985 44.3577 9.72624 43.9452V43.946C9.72424 43.9448 9.72253 43.9431 9.72054 43.9419C9.71963 43.9413 9.7182 43.9408 9.71729 43.9403V43.9395C9.53925 43.8308 9.3923 43.6869 9.27783 43.5138V43.5146L8.39567 42.3387C8.39312 42.3363 8.39021 42.3331 8.38509 42.3306C8.37904 42.3276 8.36953 42.3252 8.35661 42.3232H8.09619C6.88863 42.3232 5.77642 42.1846 4.9891 41.4972C4.18076 40.7914 3.875 39.6573 3.875 38.1021V35.0991C3.875 33.9108 4.14861 32.8972 4.7832 32.1507C5.42049 31.4013 6.34456 31.0121 7.45817 30.9129V30.9121C7.678 30.8857 7.89242 30.8779 8.09619 30.8779H12.9009C14.1952 30.8779 15.2809 31.2031 16.0389 31.9611C16.7968 32.7191 17.1221 33.8049 17.1221 35.0991V38.1021Z" fill="#292E41"/>
<path d="M18.875 32.0962C18.875 30.9956 18.5994 30.2833 18.158 29.842C17.7167 29.4006 17.0044 29.125 15.9038 29.125H11.0991C10.0878 29.125 9.40392 29.3583 8.96042 29.7354C8.65247 29.9972 8.41852 30.3672 8.27927 30.8779H12.9009C14.1951 30.8779 15.2809 31.2031 16.0389 31.9611C16.7968 32.7191 17.122 33.8048 17.122 35.0991V37.9189C17.6332 37.7802 18.003 37.5473 18.2646 37.2402C18.6411 36.7981 18.875 36.1147 18.875 35.0991V32.0962ZM20.125 35.0991C20.125 36.2906 19.8517 37.3041 19.2168 38.05C18.5749 38.8038 17.6422 39.1918 16.5198 39.2878C16.3327 39.3037 16.1483 39.2347 16.0177 39.0998C15.887 38.9646 15.8236 38.777 15.846 38.5903L16.4669 38.6652L16.4661 38.6644L15.846 38.5903C15.8646 38.4349 15.872 38.2736 15.872 38.1021V35.0991C15.872 33.9985 15.5964 33.2862 15.1551 32.8449C14.7137 32.4035 14.0015 32.1279 12.9009 32.1279H8.09616C7.92469 32.1279 7.76332 32.1353 7.60788 32.154C7.42117 32.1764 7.23366 32.1129 7.09844 31.9823C6.96345 31.8517 6.89456 31.6673 6.91045 31.4801C7.0065 30.3569 7.39642 29.4246 8.15069 28.7832C8.89713 28.1486 9.91073 27.875 11.0991 27.875H15.9038C17.1981 27.875 18.2838 28.2002 19.0418 28.9582C19.7998 29.7161 20.125 30.8019 20.125 32.0962V35.0991Z" fill="#292E41"/>
<circle cx="13.1336" cy="36.9461" r="0.750749" fill="#292E41"/>
<ellipse cx="10.5059" cy="36.9461" rx="0.75075" ry="0.750749" fill="#292E41"/>
<ellipse cx="7.87844" cy="36.9461" rx="0.750749" ry="0.750749" fill="#292E41"/>
</g>
<g clip-path="url(#clip2_1_33)">
<mask id="mask0_1_33" style="mask-type:luminance" maskUnits="userSpaceOnUse" x="2" y="50" width="20" height="20">
<path d="M22 50H2V70H22V50Z" fill="white"/>
</mask>
<g mask="url(#mask0_1_33)">
<path d="M11.8103 57.0503C12.1555 57.0503 12.4353 57.3301 12.4353 57.6753C12.4353 58.0205 12.1555 58.3003 11.8103 58.3003H5.33325C4.98808 58.3003 4.70825 58.0205 4.70825 57.6753C4.70825 57.3301 4.98808 57.0503 5.33325 57.0503H11.8103Z" fill="#292E41"/>
<path d="M9.42448 62.6646C9.76952 62.6647 10.0495 62.9445 10.0495 63.2896C10.0495 63.6347 9.76952 63.9144 9.42448 63.9146H8.06055C7.71537 63.9146 7.43555 63.6348 7.43555 63.2896C7.43555 62.9444 7.71537 62.6646 8.06055 62.6646H9.42448Z" fill="#292E41"/>
<path d="M13.8557 62.6646C14.2009 62.6646 14.4807 62.9444 14.4807 63.2896C14.4807 63.6348 14.2009 63.9146 13.8557 63.9146H11.1287C10.7835 63.9146 10.5037 63.6348 10.5037 63.2896C10.5037 62.9444 10.7835 62.6646 11.1287 62.6646H13.8557Z" fill="#292E41"/>
<path d="M4.70825 63.0158V57.2476C4.70825 56.0214 4.8443 55.0055 5.49357 54.3447C6.1466 53.6804 7.15321 53.5415 8.3606 53.5415H13.8562C14.2013 53.5416 14.4812 53.8214 14.4812 54.1665C14.4812 54.5116 14.2013 54.7914 13.8562 54.7915H8.3606C7.1477 54.7915 6.64019 54.9612 6.38469 55.2212C6.12552 55.4851 5.95825 56.0107 5.95825 57.2476V63.0158C5.95827 64.2522 6.12561 64.7774 6.38469 65.0413C6.64019 65.3013 7.1477 65.471 8.3606 65.471H15.942C17.1549 65.471 17.6624 65.3013 17.9179 65.0413C18.1771 64.7775 18.3443 64.2525 18.3443 63.0158V60.1528C18.3443 59.8078 18.6243 59.528 18.9693 59.5278C19.3145 59.5278 19.5943 59.8077 19.5943 60.1528V63.0158C19.5943 64.2417 19.459 65.2571 18.8098 65.9178C18.1568 66.5823 17.1496 66.721 15.942 66.721H8.3606C7.15311 66.721 6.1466 66.5822 5.49357 65.9178C4.84433 65.2571 4.70827 64.2418 4.70825 63.0158Z" fill="#292E41"/>
<path d="M16.8477 53.8684C17.5405 53.3629 18.4952 53.5068 19.0165 54.1744C19.1296 54.2679 19.2288 54.3759 19.3111 54.4983C19.7955 55.2017 19.6536 56.1629 18.9978 56.6972L16.4864 59.2826L16.0339 58.8431L16.4595 59.3078C16.25 59.4996 16.0061 59.6171 15.7515 59.674L15.614 59.0588L15.6148 59.0645L15.7515 59.674C15.736 59.6775 15.72 59.6807 15.7043 59.683L14.7367 59.823L14.7359 59.8222C14.5987 59.8464 14.4556 59.8446 14.32 59.814C13.7385 59.6845 13.3868 59.1217 13.4835 58.5583H13.4818L13.6185 57.5622C13.6206 57.5473 13.6228 57.5322 13.6259 57.5175L13.6771 57.3295C13.7397 57.143 13.8369 56.9638 13.9758 56.8029L14.4446 57.2082L14.4421 57.205L13.9758 56.8029C13.9838 56.7937 13.9926 56.7848 14.001 56.7761L16.5132 54.1898C16.6033 54.0763 16.7093 53.9686 16.8388 53.8749C16.8399 53.8741 16.8409 53.8724 16.842 53.8716C16.8439 53.8703 16.8458 53.8697 16.8477 53.8684ZM16.4864 59.2826C16.4779 59.2914 16.4686 59.2996 16.4595 59.3078L16.038 58.8472L16.4864 59.2826ZM14.5512 58.7878L14.6464 59.2053L14.6472 59.2045L14.5512 58.7878ZM14.1019 58.6438L14.574 58.7081L14.5723 58.6942L14.5691 58.7072L14.5316 58.7024L14.0971 58.6421L14.1019 58.6438ZM14.574 58.7081L14.5691 58.7072L14.5723 58.6942L14.574 58.7081ZM17.5728 54.8856C17.5464 54.9045 17.5163 54.9329 17.4792 54.9825L17.4271 55.0435L14.9182 57.6249C14.8887 57.6604 14.8665 57.7048 14.8523 57.7657L14.7432 58.5583L15.4887 58.4509C15.54 58.438 15.578 58.4178 15.6107 58.389L18.1189 55.8077C18.1425 55.7834 18.1681 55.7611 18.1954 55.7409C18.3581 55.6206 18.4009 55.3777 18.28 55.2046L18.7951 54.8449L18.7667 54.8637L18.28 55.2046L18.2735 55.1957L18.2418 55.1558L18.2043 55.1241L18.1197 55.0516C18.0936 55.0249 18.0699 54.9957 18.0489 54.9646C17.9396 54.8021 17.73 54.7695 17.5818 54.8791L17.5728 54.8856L17.2107 54.377L17.2099 54.3762L17.5728 54.8856Z" fill="#292E41"/>
<path d="M16.4506 54.3783C16.7831 54.2862 17.1274 54.4812 17.2197 54.8137C17.3835 55.4033 17.8226 55.8523 18.3688 56.0067C18.7009 56.1005 18.8945 56.4461 18.8009 56.7782C18.7071 57.1104 18.3616 57.3041 18.0294 57.2103C17.035 56.9295 16.2879 56.1293 16.0153 55.1473C15.9231 54.8148 16.1181 54.4706 16.4506 54.3783Z" fill="#292E41"/>
</g>
</g>
<g clip-path="url(#clip3_1_33)">
<mask id="mask1_1_33" style="mask-type:luminance" maskUnits="userSpaceOnUse" x="2" y="74" width="20" height="20">
<path d="M22 74H2V94H22V74Z" fill="white"/>
</mask>
<g mask="url(#mask1_1_33)">
<path d="M9.99983 83.3367C9.99983 83.7039 9.70135 84.0015 9.33316 84.0015C8.96497 84.0015 8.6665 83.7039 8.6665 83.3367C8.6665 82.9695 8.96497 82.6719 9.33316 82.6719C9.70135 82.6719 9.99983 82.9695 9.99983 83.3367Z" fill="#292E41"/>
<path d="M17.5572 89.5436C17.8008 89.2993 18.1965 89.2985 18.441 89.542L19.1083 90.2069C19.3525 90.4506 19.3527 90.8463 19.1091 91.0907C18.8654 91.335 18.4697 91.3359 18.2253 91.0923L17.5588 90.4274C17.3144 90.1838 17.3136 89.7881 17.5572 89.5436Z" fill="#292E41"/>
<path d="M18.0416 84.6463V81.3228C18.0416 80.0899 17.7331 79.2794 17.2254 78.7731C16.7173 78.2665 15.9041 77.9585 14.6668 77.9585H9.33309C8.09578 77.9585 7.28253 78.2665 6.7745 78.7731C6.26676 79.2794 5.95825 80.0899 5.95825 81.3228V84.6463C5.95825 86.2541 6.28635 87.0169 6.74439 87.4165C7.22362 87.8346 8.01084 88.0106 9.33309 88.0106H9.66675L9.70663 88.0114L9.84416 88.0269C10.1166 88.0714 10.3757 88.1958 10.5815 88.3947L10.6791 88.5005L10.6995 88.5257L10.2039 88.8968L10.1998 88.9009L10.6995 88.5257L11.6996 89.8555L11.733 89.9043L11.2024 90.2282L11.2 90.2306L11.733 89.9043C11.7438 89.9219 11.7561 89.938 11.7704 89.9523L11.8184 89.9898L11.8282 89.9955L11.5027 90.5073L11.5011 90.5114L11.8282 89.9955C11.9749 90.0886 12.1772 90.0452 12.2734 89.8945C12.4591 89.6037 12.8451 89.5185 13.136 89.7041C13.427 89.8898 13.5121 90.2758 13.3264 90.5667C12.8646 91.2905 11.9004 91.514 11.1682 91.0567C11.1655 91.055 11.1628 91.0534 11.1601 91.0518L11.1585 91.051C10.975 90.9373 10.8199 90.785 10.7003 90.6058L9.71639 89.2988C9.69934 89.2804 9.67206 89.2645 9.63257 89.2606H9.33309C7.98897 89.2606 6.77651 89.1033 5.92245 88.3581C5.04719 87.5943 4.70825 86.3626 4.70825 84.6463V81.3228C4.70825 79.8966 5.0662 78.7118 5.89152 77.8885C6.71677 77.0656 7.90393 76.7085 9.33309 76.7085H14.6668C16.0959 76.7085 17.2823 77.0656 18.1075 77.8885C18.9331 78.7118 19.2916 79.8964 19.2916 81.3228V84.6463C19.2916 84.9915 19.0118 85.2713 18.6666 85.2713C18.3214 85.2713 18.0416 84.9915 18.0416 84.6463Z" fill="#292E41"/>
<path d="M17.6418 88.1234C17.6417 87.2954 16.9676 86.6211 16.133 86.6211C15.2985 86.6213 14.6251 87.2955 14.625 88.1234C14.625 88.9514 15.2985 89.6255 16.133 89.6257C16.9676 89.6257 17.6418 88.9515 17.6418 88.1234ZM18.8918 88.1234C18.8918 89.6452 17.6547 90.8757 16.133 90.8757C14.6114 90.8755 13.375 89.6451 13.375 88.1234C13.3751 86.6019 14.6114 85.3713 16.133 85.3711C17.6547 85.3711 18.8917 86.6017 18.8918 88.1234Z" fill="#292E41"/>
<path d="M14.6739 82.5034C15.134 82.5036 15.5073 82.8766 15.5073 83.3368C15.5073 83.7969 15.134 84.1699 14.6739 84.1701H14.6666C14.2064 84.1701 13.8333 83.797 13.8333 83.3368C13.8333 82.8765 14.2064 82.5034 14.6666 82.5034H14.6739Z" fill="#292E41"/>
<path d="M12.6666 83.3367C12.6666 83.7039 12.3681 84.0015 11.9999 84.0015C11.6317 84.0015 11.3333 83.7039 11.3333 83.3367C11.3333 82.9695 11.6317 82.6719 11.9999 82.6719C12.3681 82.6719 12.6666 82.9695 12.6666 83.3367Z" fill="#292E41"/>
</g>
</g>
<defs>
<clipPath id="clip0_1_33">
<rect width="20" height="20" fill="white" transform="translate(2 2)"/>
</clipPath>
<clipPath id="clip1_1_33">
<rect width="20" height="20" fill="white" transform="translate(2 26)"/>
</clipPath>
<clipPath id="clip2_1_33">
<rect width="20" height="20" fill="white" transform="translate(2 50)"/>
</clipPath>
<clipPath id="clip3_1_33">
<rect width="20" height="20" fill="white" transform="translate(2 74)"/>
</clipPath>
</defs>
</svg>
