<svg width="48" height="234" viewBox="0 0 48 234" fill="none" xmlns="http://www.w3.org/2000/svg">
<path d="M17.8336 3.57878L4.16662 7.84878C3.79862 7.96478 3.50462 8.24278 3.36862 8.60378L3.32962 8.72578C3.16962 9.33878 3.49462 9.98578 4.09962 10.2128L10.3946 12.5738L12.3306 18.7688C12.4486 19.1488 12.7406 19.4488 13.1166 19.5788C13.7696 19.8028 14.4806 19.4548 14.7056 18.8018L19.3886 5.17778C19.4756 4.92578 19.4786 4.65278 19.3996 4.39878C19.1936 3.73978 18.4926 3.37278 17.8336 3.57878ZM17.8086 5.15678L13.5346 17.5938L11.7166 11.7758L11.6736 11.6698C11.5906 11.4998 11.4436 11.3648 11.2636 11.2978L5.30862 9.06378L17.8086 5.15678Z" fill="#AFBAC8"/>
<path d="M4 50C4.89057 46.5541 8.13453 44 12 44C15.8655 44 19.1094 46.5541 20 50" fill="white"/>
<path d="M4 50C4.89057 46.5541 8.13453 44 12 44C15.8655 44 19.1094 46.5541 20 50" stroke="#AFBAC8" stroke-width="1.5" stroke-linecap="round"/>
<path d="M12 41.25C13.7949 41.25 15.25 39.7949 15.25 38C15.25 36.2051 13.7949 34.75 12 34.75C10.2051 34.75 8.75 36.2051 8.75 38C8.75 39.7949 10.2051 41.25 12 41.25Z" stroke="#AFBAC8" stroke-width="1.5"/>
<path d="M15.768 63.6579C16.453 62.9859 17.552 62.9909 18.231 63.6699L20.578 66.0179C21.255 66.7079 21.245 67.8159 20.555 68.4919L8.317 80.4999C7.99 80.8209 7.55 81.0009 7.091 81.0009H3.95C3.425 81.0009 3 80.5759 3 80.0509V76.9209C3 76.4509 3.189 76.0009 3.524 75.6709L15.768 63.6579ZM13.966 67.5269L4.575 76.7399C4.527 76.7869 4.5 76.8519 4.5 76.9189V79.4999H7.091C7.135 79.4999 7.177 79.4889 7.215 79.4669L7.266 79.4279L16.656 70.2169L13.966 67.5269ZM17.17 64.7299C17.073 64.6329 16.916 64.6319 16.818 64.7279L15.037 66.4759L17.726 69.1649L19.504 67.4209C19.586 67.3409 19.601 67.2169 19.551 67.1239L19.512 67.0719L17.17 64.7299Z" fill="#AFBAC8"/>
<path d="M9.25781 104.583L10.5078 105.833L13.8411 102.5" stroke="#AFBAC8" stroke-width="1.5" stroke-linecap="round" stroke-linejoin="round"/>
<path d="M9.83464 97.3333H13.168C14.8346 97.3333 14.8346 96.5 14.8346 95.6667C14.8346 94 14.0013 94 13.168 94H9.83464C9.0013 94 8.16797 94 8.16797 95.6667C8.16797 97.3333 9.0013 97.3333 9.83464 97.3333Z" stroke="#AFBAC8" stroke-width="1.5" stroke-linecap="round" stroke-linejoin="round"/>
<path d="M14.8333 95.6836C17.6083 95.8336 19 96.8586 19 100.667V105.667C19 109 18.1667 110.667 14 110.667H9C4.83333 110.667 4 109 4 105.667V100.667C4 96.8669 5.39167 95.8336 8.16667 95.6836" stroke="#AFBAC8" stroke-width="1.5" stroke-linecap="round" stroke-linejoin="round"/>
<path d="M17.3964 130.919V134.522C17.3964 134.748 17.3874 134.973 17.3603 135.198C17.1531 137.631 15.7207 138.838 13.0811 138.838H12.7207C12.4955 138.838 12.2793 138.946 12.1441 139.126L11.063 140.567C10.7658 141.045 10.1351 141.189 9.65765 140.892C9.52251 140.811 9.4144 140.703 9.33332 140.567L8.25224 139.126C8.1081 138.955 7.90089 138.856 7.67567 138.838H7.31531C4.44144 138.838 3 138.126 3 134.522V130.919C3 128.279 4.21621 126.847 6.63963 126.64C6.86486 126.613 7.09008 126.604 7.31531 126.604H13.0811C15.9549 126.604 17.3964 128.045 17.3964 130.919Z" fill="white" stroke="#AFBAC8" stroke-width="1.5" stroke-linecap="round" stroke-linejoin="round"/>
<path d="M21.001 127.315V130.919C21.001 133.568 19.7847 134.991 17.3613 135.198C17.3884 134.973 17.3974 134.748 17.3974 134.523V130.919C17.3974 128.045 15.9559 126.604 13.0821 126.604H7.3163C7.09107 126.604 6.86585 126.613 6.64062 126.64C6.84783 124.216 8.28026 123 10.9199 123H16.6857C19.5595 123 21.001 124.441 21.001 127.315Z" stroke="#AFBAC8" stroke-width="1.5" stroke-linecap="round" stroke-linejoin="round"/>
<circle cx="13.3618" cy="133.135" r="0.900899" fill="#AFBAC8"/>
<circle cx="10.2056" cy="133.135" r="0.900899" fill="#AFBAC8"/>
<circle cx="7.05324" cy="133.135" r="0.900899" fill="#AFBAC8"/>
<path d="M4 159.211H11.7727" stroke="#AFBAC8" stroke-width="1.5" stroke-linecap="round" stroke-linejoin="round"/>
<path d="M7.27344 165.947H8.9098" stroke="#AFBAC8" stroke-width="1.5" stroke-linecap="round" stroke-linejoin="round"/>
<path d="M10.9531 165.947H14.2259" stroke="#AFBAC8" stroke-width="1.5" stroke-linecap="round" stroke-linejoin="round"/>
<path d="M20.3636 162.183V165.619C20.3636 168.575 19.6355 169.316 16.7309 169.316H7.63273C4.72818 169.316 4 168.575 4 165.619V158.697C4 155.741 4.72818 155 7.63273 155H14.2273" stroke="#AFBAC8" stroke-width="1.5" stroke-linecap="round" stroke-linejoin="round"/>
<path d="M17.9735 155.531L14.9381 158.655C14.8072 158.806 14.7253 158.983 14.6844 159.177L14.5208 160.373C14.4553 160.676 14.6435 160.979 14.9463 161.046C15.0199 161.063 15.1017 161.063 15.1753 161.046L16.3372 160.878C16.5253 160.836 16.6972 160.752 16.8444 160.617L19.8799 157.493C20.4035 157.105 20.5263 156.356 20.1499 155.817C20.0763 155.707 19.9863 155.615 19.8799 155.539C19.5117 154.992 18.7753 154.865 18.2517 155.253C18.1453 155.328 18.0553 155.421 17.9735 155.531Z" stroke="#AFBAC8" stroke-width="1.5" stroke-linecap="round" stroke-linejoin="round"/>
<path d="M17.5391 155.977C17.8009 156.92 18.5127 157.669 19.4372 157.93" stroke="#AFBAC8" stroke-width="1.5" stroke-linecap="round" stroke-linejoin="round"/>
<path d="M8.21094 183V185.542" stroke="#AFBAC8" stroke-width="1.5" stroke-linecap="round" stroke-linejoin="round"/>
<path d="M14.9531 183V185.542" stroke="#AFBAC8" stroke-width="1.5" stroke-linecap="round" stroke-linejoin="round"/>
<path d="M4.42188 189.008H18.7462" stroke="#AFBAC8" stroke-width="1.5" stroke-linecap="round" stroke-linejoin="round"/>
<path d="M17.6596 194.669L14.6767 197.669C14.5504 197.813 14.4577 197.982 14.424 198.169L14.2639 199.313C14.1965 199.601 14.3818 199.889 14.6683 199.957C14.7441 199.974 14.8284 199.974 14.9042 199.957L16.0418 199.796C16.2271 199.762 16.4041 199.669 16.5389 199.541L19.5217 196.542C20.0357 196.169 20.1537 195.448 19.7914 194.931C19.7155 194.83 19.6313 194.737 19.5217 194.66C19.151 194.143 18.4348 194.033 17.9208 194.406C17.8197 194.482 17.7354 194.567 17.6596 194.669Z" stroke="#AFBAC8" stroke-width="1.5" stroke-linecap="round" stroke-linejoin="round"/>
<path d="M17.2305 195.102C17.4833 196.017 18.191 196.729 19.1011 196.983" stroke="#AFBAC8" stroke-width="1.5" stroke-linecap="round" stroke-linejoin="round"/>
<path d="M11.5835 199.949H8.21303C5.26391 199.949 4 198.254 4 195.712V188.509C4 185.966 5.26391 184.271 8.21303 184.271H14.9539C17.903 184.271 19.1669 185.966 19.1669 188.509V191.475" stroke="#AFBAC8" stroke-width="1.5" stroke-linecap="round" stroke-linejoin="round"/>
<ellipse cx="11.5848" cy="192.915" rx="0.842606" ry="0.847429" fill="#AFBAC8"/>
<path d="M8.45703 192.915H8.46561" stroke="#AFBAC8" stroke-width="1.5" stroke-linecap="round" stroke-linejoin="round"/>
<ellipse cx="8.4637" cy="195.457" rx="0.842606" ry="0.847429" fill="#AFBAC8"/>
<ellipse cx="8.8" cy="221.204" rx="0.8" ry="0.797773" fill="#AFBAC8"/>
<path d="M19.9992 229.979L19.1992 229.182" stroke="#AFBAC8" stroke-width="1.5" stroke-linecap="round" stroke-linejoin="round"/>
<path d="M12.96 229.477C12.624 230.003 11.92 230.163 11.392 229.828C11.248 229.74 11.128 229.62 11.04 229.477L9.84 227.881C9.68 227.69 9.448 227.578 9.2 227.562H8.8C5.6 227.562 4 226.764 4 222.776V218.787C4 215.596 5.6 214 8.8 214H15.2C18.4 214 20 215.596 20 218.787V222.776" stroke="#AFBAC8" stroke-width="1.5" stroke-linecap="round" stroke-linejoin="round"/>
<path d="M16.9584 229.5C18.3723 229.5 19.5184 228.357 19.5184 226.947C19.5184 225.537 18.3723 224.395 16.9584 224.395C15.5446 224.395 14.3984 225.537 14.3984 226.947C14.3984 228.357 15.5446 229.5 16.9584 229.5Z" stroke="#AFBAC8" stroke-width="1.5" stroke-linecap="round" stroke-linejoin="round"/>
<path d="M15.1992 221.204H15.2076" stroke="#AFBAC8" stroke-width="2" stroke-linecap="round" stroke-linejoin="round"/>
<ellipse cx="11.9992" cy="221.204" rx="0.8" ry="0.797773" fill="#AFBAC8"/>
<path d="M41.8336 3.57878L28.1666 7.84878C27.7986 7.96478 27.5046 8.24278 27.3686 8.60378L27.3296 8.72578C27.1696 9.33878 27.4946 9.98578 28.0996 10.2128L34.3946 12.5738L36.3306 18.7688C36.4486 19.1488 36.7406 19.4488 37.1166 19.5788C37.7696 19.8028 38.4806 19.4548 38.7056 18.8018L43.3886 5.17778C43.4756 4.92578 43.4786 4.65278 43.3996 4.39878C43.1936 3.73978 42.4926 3.37278 41.8336 3.57878ZM41.8086 5.15678L37.5346 17.5938L35.7166 11.7758L35.6736 11.6698C35.5906 11.4998 35.4436 11.3648 35.2636 11.2978L29.3086 9.06378L41.8086 5.15678Z" fill="#5436EA"/>
<path d="M28 50C28.8906 46.5541 32.1345 44 36 44C39.8655 44 43.1094 46.5541 44 50" fill="white"/>
<path d="M28 50C28.8906 46.5541 32.1345 44 36 44C39.8655 44 43.1094 46.5541 44 50" stroke="#5436EA" stroke-width="1.5" stroke-linecap="round"/>
<path d="M36 41.25C37.7949 41.25 39.25 39.7949 39.25 38C39.25 36.2051 37.7949 34.75 36 34.75C34.2051 34.75 32.75 36.2051 32.75 38C32.75 39.7949 34.2051 41.25 36 41.25Z" stroke="#5436EA" stroke-width="1.5"/>
<path d="M39.768 63.6579C40.453 62.9859 41.552 62.9909 42.231 63.6699L44.578 66.0179C45.255 66.7079 45.245 67.8159 44.555 68.4919L32.317 80.4999C31.99 80.8209 31.55 81.0009 31.091 81.0009H27.95C27.425 81.0009 27 80.5759 27 80.0509V76.9209C27 76.4509 27.189 76.0009 27.524 75.6709L39.768 63.6579ZM37.966 67.5269L28.575 76.7399C28.527 76.7869 28.5 76.8519 28.5 76.9189V79.4999H31.091C31.135 79.4999 31.177 79.4889 31.215 79.4669L31.266 79.4279L40.656 70.2169L37.966 67.5269ZM41.17 64.7299C41.073 64.6329 40.916 64.6319 40.818 64.7279L39.037 66.4759L41.726 69.1649L43.504 67.4209C43.586 67.3409 43.601 67.2169 43.551 67.1239L43.512 67.0719L41.17 64.7299Z" fill="#5436EA"/>
<path d="M33.2578 104.583L34.5078 105.833L37.8411 102.5" stroke="#5436EA" stroke-width="1.5" stroke-linecap="round" stroke-linejoin="round"/>
<path d="M33.8346 97.3333H37.168C38.8346 97.3333 38.8346 96.5 38.8346 95.6667C38.8346 94 38.0013 94 37.168 94H33.8346C33.0013 94 32.168 94 32.168 95.6667C32.168 97.3333 33.0013 97.3333 33.8346 97.3333Z" stroke="#5436EA" stroke-width="1.5" stroke-linecap="round" stroke-linejoin="round"/>
<path d="M38.8333 95.6836C41.6083 95.8336 43 96.8586 43 100.667V105.667C43 109 42.1667 110.667 38 110.667H33C28.8333 110.667 28 109 28 105.667V100.667C28 96.8669 29.3917 95.8336 32.1667 95.6836" stroke="#5436EA" stroke-width="1.5" stroke-linecap="round" stroke-linejoin="round"/>
<path d="M41.3964 130.919V134.522C41.3964 134.748 41.3874 134.973 41.3603 135.198C41.1531 137.631 39.7207 138.838 37.0811 138.838H36.7207C36.4955 138.838 36.2793 138.946 36.1441 139.126L35.063 140.567C34.7658 141.045 34.1351 141.189 33.6576 140.892C33.5225 140.811 33.4144 140.703 33.3333 140.567L32.2522 139.126C32.1081 138.955 31.9009 138.856 31.6757 138.838H31.3153C28.4414 138.838 27 138.126 27 134.522V130.919C27 128.279 28.2162 126.847 30.6396 126.64C30.8649 126.613 31.0901 126.604 31.3153 126.604H37.0811C39.9549 126.604 41.3964 128.045 41.3964 130.919Z" fill="white" stroke="#5436EA" stroke-width="1.5" stroke-linecap="round" stroke-linejoin="round"/>
<path d="M45.001 127.315V130.919C45.001 133.568 43.7847 134.991 41.3613 135.198C41.3884 134.973 41.3974 134.748 41.3974 134.523V130.919C41.3974 128.045 39.9559 126.604 37.0821 126.604H31.3163C31.0911 126.604 30.8658 126.613 30.6406 126.64C30.8478 124.216 32.2803 123 34.9199 123H40.6857C43.5595 123 45.001 124.441 45.001 127.315Z" stroke="#5436EA" stroke-width="1.5" stroke-linecap="round" stroke-linejoin="round"/>
<circle cx="37.3618" cy="133.135" r="0.900899" fill="#5436EA"/>
<circle cx="34.2056" cy="133.135" r="0.900899" fill="#5436EA"/>
<circle cx="31.0532" cy="133.135" r="0.900899" fill="#5436EA"/>
<path d="M28 159.211H35.7727" stroke="#5436EA" stroke-width="1.5" stroke-linecap="round" stroke-linejoin="round"/>
<path d="M31.2734 165.947H32.9098" stroke="#5436EA" stroke-width="1.5" stroke-linecap="round" stroke-linejoin="round"/>
<path d="M34.9531 165.947H38.2259" stroke="#5436EA" stroke-width="1.5" stroke-linecap="round" stroke-linejoin="round"/>
<path d="M44.3636 162.183V165.619C44.3636 168.575 43.6355 169.316 40.7309 169.316H31.6327C28.7282 169.316 28 168.575 28 165.619V158.697C28 155.741 28.7282 155 31.6327 155H38.2273" stroke="#5436EA" stroke-width="1.5" stroke-linecap="round" stroke-linejoin="round"/>
<path d="M41.9735 155.531L38.9381 158.655C38.8072 158.806 38.7253 158.983 38.6844 159.177L38.5208 160.373C38.4553 160.676 38.6435 160.979 38.9463 161.046C39.0199 161.063 39.1017 161.063 39.1753 161.046L40.3372 160.878C40.5253 160.836 40.6972 160.752 40.8444 160.617L43.8799 157.493C44.4035 157.105 44.5263 156.356 44.1499 155.817C44.0763 155.707 43.9863 155.615 43.8799 155.539C43.5117 154.992 42.7753 154.865 42.2517 155.253C42.1453 155.328 42.0553 155.421 41.9735 155.531Z" stroke="#5436EA" stroke-width="1.5" stroke-linecap="round" stroke-linejoin="round"/>
<path d="M41.5391 155.977C41.8009 156.92 42.5127 157.669 43.4372 157.93" stroke="#5436EA" stroke-width="1.5" stroke-linecap="round" stroke-linejoin="round"/>
<path d="M32.2109 183V185.542" stroke="#5436EA" stroke-width="1.5" stroke-linecap="round" stroke-linejoin="round"/>
<path d="M38.9531 183V185.542" stroke="#5436EA" stroke-width="1.5" stroke-linecap="round" stroke-linejoin="round"/>
<path d="M28.4219 189.008H42.7462" stroke="#5436EA" stroke-width="1.5" stroke-linecap="round" stroke-linejoin="round"/>
<path d="M41.6596 194.669L38.6767 197.669C38.5504 197.813 38.4577 197.982 38.424 198.169L38.2639 199.313C38.1965 199.601 38.3818 199.889 38.6683 199.957C38.7441 199.974 38.8284 199.974 38.9042 199.957L40.0418 199.796C40.2271 199.762 40.4041 199.669 40.5389 199.541L43.5217 196.542C44.0357 196.169 44.1537 195.448 43.7914 194.931C43.7155 194.83 43.6313 194.737 43.5217 194.66C43.151 194.143 42.4348 194.033 41.9208 194.406C41.8197 194.482 41.7354 194.567 41.6596 194.669Z" stroke="#5436EA" stroke-width="1.5" stroke-linecap="round" stroke-linejoin="round"/>
<path d="M41.2305 195.102C41.4833 196.017 42.191 196.729 43.1011 196.983" stroke="#5436EA" stroke-width="1.5" stroke-linecap="round" stroke-linejoin="round"/>
<path d="M35.5835 199.949H32.213C29.2639 199.949 28 198.254 28 195.712V188.509C28 185.966 29.2639 184.271 32.213 184.271H38.9539C41.903 184.271 43.1669 185.966 43.1669 188.509V191.475" stroke="#5436EA" stroke-width="1.5" stroke-linecap="round" stroke-linejoin="round"/>
<ellipse cx="35.5848" cy="192.915" rx="0.842606" ry="0.847429" fill="#5436EA"/>
<path d="M32.457 192.915H32.4656" stroke="#5436EA" stroke-width="1.5" stroke-linecap="round" stroke-linejoin="round"/>
<ellipse cx="32.4637" cy="195.457" rx="0.842606" ry="0.847429" fill="#5436EA"/>
<ellipse cx="32.8" cy="221.204" rx="0.8" ry="0.797773" fill="#5436EA"/>
<path d="M43.9992 229.979L43.1992 229.182" stroke="#5436EA" stroke-width="1.5" stroke-linecap="round" stroke-linejoin="round"/>
<path d="M36.96 229.477C36.624 230.003 35.92 230.163 35.392 229.828C35.248 229.74 35.128 229.62 35.04 229.477L33.84 227.881C33.68 227.69 33.448 227.578 33.2 227.562H32.8C29.6 227.562 28 226.764 28 222.776V218.787C28 215.596 29.6 214 32.8 214H39.2C42.4 214 44 215.596 44 218.787V222.776" stroke="#5436EA" stroke-width="1.5" stroke-linecap="round" stroke-linejoin="round"/>
<path d="M40.9584 229.5C42.3723 229.5 43.5184 228.357 43.5184 226.947C43.5184 225.537 42.3723 224.395 40.9584 224.395C39.5446 224.395 38.3984 225.537 38.3984 226.947C38.3984 228.357 39.5446 229.5 40.9584 229.5Z" stroke="#5436EA" stroke-width="1.5" stroke-linecap="round" stroke-linejoin="round"/>
<path d="M39.1992 221.204H39.2076" stroke="#5436EA" stroke-width="2" stroke-linecap="round" stroke-linejoin="round"/>
<ellipse cx="35.9992" cy="221.204" rx="0.8" ry="0.797773" fill="#5436EA"/>
</svg>
