<svg width="103" height="18" viewBox="0 0 103 18" fill="none" xmlns="http://www.w3.org/2000/svg">
<path d="M3.27783 10.0569H8.40315C8.64154 10.0569 8.82033 9.86324 8.82033 9.63975V7.77735C8.82033 7.53896 8.62664 7.36017 8.40315 7.36017H3.27783C3.03944 7.36017 2.86065 7.16648 2.86065 6.94299V3.21819C2.86065 2.9798 3.05434 2.80101 3.27783 2.80101H8.87993C9.11832 2.80101 9.29711 2.60732 9.29711 2.38383V0.506533C9.29711 0.268146 9.10342 0.0893555 8.87993 0.0893555H0.417178C0.19369 0.0893555 0 0.268146 0 0.506533V17.3426C0 17.581 0.19369 17.7598 0.417178 17.7598H9.02892C9.26731 17.7598 9.4461 17.5661 9.4461 17.3426V15.4802C9.4461 15.2419 9.25241 15.0631 9.02892 15.0631H3.27783C3.03944 15.0631 2.86065 14.8694 2.86065 14.6459V10.5039C2.86065 10.2655 3.05434 10.0867 3.27783 10.0867V10.0569Z" fill="#231815"/>
<path d="M22.7361 6.49602V4.15684C22.7361 1.44518 21.4846 0.0893555 19.0262 0.0893555H12.5898C12.3514 0.0893555 12.1726 0.283045 12.1726 0.506533V17.3426C12.1726 17.581 12.3514 17.8343 12.5898 17.7598L14.6012 17.2383C14.8396 17.1639 15.0184 16.9702 15.0184 16.7467V10.5039H16.8361C16.9851 10.5039 17.134 10.5933 17.2085 10.7274C17.2085 10.7274 20.0841 16.0017 21.0525 17.7747C21.127 17.9088 21.3356 17.9684 21.5144 17.9088C21.8273 17.7896 23.2874 16.8957 23.2874 16.8957C23.496 16.7765 23.5556 16.5232 23.4513 16.3146L20.3374 10.8168C20.2033 10.5784 20.3374 10.2953 20.5907 10.2059C22.0508 9.66955 22.751 8.44781 22.751 6.49602H22.7361ZM15.0184 3.18839C15.0184 2.95 15.212 2.77121 15.4355 2.77121H18.6836C19.5179 2.77121 19.8755 3.20329 19.8755 4.21644V6.40662C19.8755 7.46447 19.503 7.85185 18.475 7.85185H15.4355C15.1971 7.85185 15.0184 7.65815 15.0184 7.43467V3.20329V3.18839Z" fill="#231815"/>
<path d="M29.3068 0.402239L25.1052 16.3146C25.0605 16.553 25.1797 16.7914 25.4032 16.9255L27.2209 17.9535C27.4444 18.028 27.6679 17.8641 27.7275 17.6406L28.9343 12.8878C28.979 12.6941 29.1578 12.5749 29.3366 12.5749H33.0465C33.2402 12.5749 33.4041 12.709 33.4488 12.8878L34.6556 17.6257C34.7152 17.8492 34.9238 18.028 35.1622 17.9386L36.9948 16.8212C37.2332 16.6573 37.3077 16.4934 37.2481 16.255L33.0763 0.402239C33.0316 0.223448 32.8528 0.0893555 32.674 0.0893555H29.724C29.5303 0.0893555 29.3664 0.223448 29.3217 0.402239H29.3068ZM32.1973 9.99733H30.1859C29.9177 9.99733 29.7091 9.74405 29.7836 9.47586L30.7967 5.52757C30.901 5.11039 31.5119 5.11039 31.6162 5.52757L32.6144 9.47586C32.6889 9.74405 32.4804 9.99733 32.2122 9.99733H32.1973Z" fill="#231815"/>
<path d="M45.8448 0H42.716C40.2874 0 39.0061 1.40053 39.0061 4.06749V13.7669C39.0061 16.4338 40.2874 17.8344 42.716 17.8344H45.8448C48.3032 17.8344 49.5547 16.4636 49.5547 13.7669V4.06749C49.5547 1.37073 48.3032 0 45.8448 0ZM46.709 4.12708V13.6924C46.709 14.7204 46.3663 15.1376 45.5171 15.1376H43.0736C42.2243 15.1376 41.8668 14.7055 41.8668 13.6924V4.12708C41.8668 3.12883 42.2392 2.68186 43.0736 2.68186H45.5171C46.3514 2.68186 46.709 3.11394 46.709 4.12708Z" fill="#231815"/>
<path d="M60.3864 9.72915C60.3864 10.1761 59.7755 10.3102 59.5818 9.90794L55.1568 0.19365L55.1121 0.0893555H52.7431C52.5047 0.0893555 52.3259 0.283045 52.3259 0.506533V17.3426C52.3259 17.581 52.5196 17.7598 52.7431 17.7598H54.6949C54.9333 17.7598 55.1121 17.5661 55.1121 17.3426V8.10513C55.1121 7.65816 55.7378 7.52406 55.9166 7.92634L60.3417 17.6555L60.3864 17.7598H62.7554C62.9938 17.7598 63.1726 17.5661 63.1726 17.3426V0.506533C63.1726 0.268146 62.9789 0.0893555 62.7554 0.0893555H60.8036C60.5652 0.0893555 60.3864 0.283045 60.3864 0.506533V9.72915Z" fill="#231815"/>
<path d="M69.3856 10.0569H74.5109C74.7493 10.0569 74.9281 9.86324 74.9281 9.63975V7.77735C74.9281 7.53896 74.7344 7.36017 74.5109 7.36017H69.3856C69.1472 7.36017 68.9684 7.16648 68.9684 6.94299V3.21819C68.9684 2.9798 69.1621 2.80101 69.3856 2.80101H74.9877C75.2261 2.80101 75.4049 2.60732 75.4049 2.38383V0.506533C75.4049 0.268146 75.2112 0.0893555 74.9877 0.0893555H66.525C66.2866 0.0893555 66.1078 0.283045 66.1078 0.506533V17.3426C66.1078 17.581 66.3015 17.7598 66.525 17.7598H75.1367C75.3751 17.7598 75.5539 17.5661 75.5539 17.3426V15.4802C75.5539 15.2419 75.3602 15.0631 75.1367 15.0631H69.3856C69.1472 15.0631 68.9684 14.8694 68.9684 14.6459V10.5039C68.9684 10.2655 69.1621 10.0867 69.3856 10.0867V10.0569Z" fill="#5436EA"/>
<path d="M85.1041 0.0893555H78.6826C78.4442 0.0893555 78.2654 0.283045 78.2654 0.506533V17.3426C78.2654 17.581 78.4591 17.7598 78.6826 17.7598H85.1041C87.5625 17.7598 88.814 16.3891 88.814 13.6923V4.15684C88.814 1.46008 87.5625 0.0893555 85.1041 0.0893555ZM81.1111 3.18839C81.1111 2.95 81.3048 2.77121 81.5283 2.77121H84.7614C85.5958 2.77121 85.9534 3.20329 85.9534 4.21644V13.6029C85.9534 14.631 85.6107 15.0482 84.7614 15.0482H81.5283C81.2899 15.0482 81.1111 14.8545 81.1111 14.631V3.18839Z" fill="#5436EA"/>
<path d="M99.5715 0.938515C99.3331 1.07261 99.1543 1.2663 99.1543 1.50468V13.6922C99.1543 14.7203 98.8116 15.1375 97.9624 15.1375H95.5189C94.6696 15.1375 94.3121 14.7054 94.3121 13.6922V1.50468C94.3121 1.2663 94.1035 1.05771 93.8949 0.938515L92.0325 0.148857C91.809 0.0594615 91.4663 0.26805 91.4663 0.506438V13.7667C91.4663 16.4337 92.7476 17.8342 95.1762 17.8342H98.3051C100.763 17.8342 102.015 16.4635 102.015 13.7667V0.506438C102.015 0.26805 101.687 0.0594615 101.449 0.148857L99.5864 0.938515H99.5715Z" fill="#5436EA"/>
</svg>
