<svg width="143" height="25" viewBox="0 0 143 25" fill="none" xmlns="http://www.w3.org/2000/svg">
<path d="M4.56325 13.968H11.6985C12.0304 13.968 12.2793 13.699 12.2793 13.3886V10.8019C12.2793 10.4708 12.0096 10.2225 11.6985 10.2225H4.56325C4.23138 10.2225 3.98247 9.95346 3.98247 9.64306V4.46972C3.98247 4.13863 4.25212 3.8903 4.56325 3.8903H12.3623C12.6941 3.8903 12.943 3.62129 12.943 3.31089V0.703529C12.943 0.372435 12.6734 0.124115 12.3623 0.124115H0.580777C0.269646 0.124115 0 0.372435 0 0.703529V24.087C0 24.4181 0.269646 24.6664 0.580777 24.6664H12.5697C12.9015 24.6664 13.1505 24.3974 13.1505 24.087V21.5003C13.1505 21.1693 12.8808 20.9209 12.5697 20.9209H4.56325C4.23138 20.9209 3.98247 20.6519 3.98247 20.3415V14.5888C3.98247 14.2577 4.25212 14.0094 4.56325 14.0094V13.968Z" fill="#292E41"/>
<path d="M31.6523 9.02226V5.7734C31.6523 2.00721 29.9099 0.124115 26.4875 0.124115H17.5269C17.1951 0.124115 16.9462 0.393129 16.9462 0.703529V24.087C16.9462 24.4181 17.1951 24.7699 17.5269 24.6664L20.3271 23.9422C20.659 23.8387 20.9079 23.5697 20.9079 23.2593V14.5888H23.4384C23.6458 14.5888 23.8533 14.7129 23.957 14.8992C23.957 14.8992 27.9602 22.2246 29.3084 24.6871C29.4121 24.8734 29.7025 24.9561 29.9514 24.8734C30.387 24.7078 32.4197 23.4662 32.4197 23.4662C32.7101 23.3007 32.7931 22.9489 32.6479 22.6592L28.3128 15.0233C28.1261 14.6922 28.3128 14.2991 28.6654 14.1749C30.6981 13.4299 31.673 11.7331 31.673 9.02226H31.6523ZM20.9079 4.42833C20.9079 4.09724 21.1775 3.84892 21.4887 3.84892H26.0104C27.172 3.84892 27.6698 4.44903 27.6698 5.85617V8.8981C27.6698 10.3673 27.1512 10.9054 25.72 10.9054H21.4887C21.1568 10.9054 20.9079 10.6363 20.9079 10.3259V4.44903V4.42833Z" fill="#292E41"/>
<path d="M40.7998 0.558675L34.9505 22.6592C34.8883 22.9903 35.0542 23.3214 35.3653 23.5076L37.8959 24.9354C38.207 25.0389 38.5181 24.8113 38.6011 24.5009L40.2812 17.8997C40.3434 17.6307 40.5923 17.4651 40.8412 17.4651H46.006C46.2757 17.4651 46.5038 17.6514 46.566 17.8997L48.2462 24.4802C48.3291 24.7906 48.6195 25.0389 48.9514 24.9147L51.5027 23.3627C51.8345 23.1351 51.9382 22.9075 51.8553 22.5764L46.0475 0.558675C45.9853 0.310355 45.7364 0.124115 45.4875 0.124115H41.3805C41.1109 0.124115 40.8827 0.310355 40.8205 0.558675H40.7998ZM44.8237 13.8852H42.0235C41.6502 13.8852 41.3598 13.5334 41.4635 13.1609L42.874 7.67719C43.0192 7.09777 43.8696 7.09777 44.0148 7.67719L45.4045 13.1609C45.5082 13.5334 45.2178 13.8852 44.8445 13.8852H44.8237Z" fill="#292E41"/>
<path d="M63.8233 0H59.4674C56.0865 0 54.3027 1.94518 54.3027 5.64928V19.1207C54.3027 22.8248 56.0865 24.7699 59.4674 24.7699H63.8233C67.2457 24.7699 68.988 22.8662 68.988 19.1207V5.64928C68.988 1.90379 67.2457 0 63.8233 0ZM65.0263 5.73206V19.0172C65.0263 20.445 64.5492 21.0244 63.3669 21.0244H59.9653C58.783 21.0244 58.2851 20.4243 58.2851 19.0172V5.73206C58.2851 4.3456 58.8037 3.7248 59.9653 3.7248H63.3669C64.5285 3.7248 65.0263 4.32491 65.0263 5.73206Z" fill="#292E41"/>
<path d="M84.0674 13.5127C84.0674 14.1335 83.217 14.3198 82.9473 13.761L76.7869 0.268968L76.7247 0.124115H73.4267C73.0949 0.124115 72.8459 0.393129 72.8459 0.703529V24.087C72.8459 24.4181 73.1156 24.6664 73.4267 24.6664H76.1439C76.4758 24.6664 76.7247 24.3974 76.7247 24.087V11.2571C76.7247 10.6363 77.5959 10.4501 77.8448 11.0088L84.0052 24.5216L84.0674 24.6664H87.3654C87.6972 24.6664 87.9462 24.3974 87.9462 24.087V0.703529C87.9462 0.372435 87.6765 0.124115 87.3654 0.124115H84.6482C84.3163 0.124115 84.0674 0.393129 84.0674 0.703529V13.5127Z" fill="#292E41"/>
<path d="M96.5957 13.968H103.731C104.063 13.968 104.312 13.699 104.312 13.3886V10.8019C104.312 10.4708 104.042 10.2225 103.731 10.2225H96.5957C96.2638 10.2225 96.0149 9.95346 96.0149 9.64306V4.46972C96.0149 4.13863 96.2846 3.8903 96.5957 3.8903H104.395C104.727 3.8903 104.976 3.62129 104.976 3.31089V0.703529C104.976 0.372435 104.706 0.124115 104.395 0.124115H92.6133C92.2814 0.124115 92.0325 0.393129 92.0325 0.703529V24.087C92.0325 24.4181 92.3021 24.6664 92.6133 24.6664H104.602C104.934 24.6664 105.183 24.3974 105.183 24.087V21.5003C105.183 21.1693 104.913 20.9209 104.602 20.9209H96.5957C96.2638 20.9209 96.0149 20.6519 96.0149 20.3415V14.5888C96.0149 14.2577 96.2846 14.0094 96.5957 14.0094V13.968Z" fill="#5436EA"/>
<path d="M118.478 0.124115H109.539C109.207 0.124115 108.958 0.393129 108.958 0.703529V24.087C108.958 24.4181 109.227 24.6664 109.539 24.6664H118.478C121.901 24.6664 123.643 22.7626 123.643 19.0171V5.7734C123.643 2.0279 121.901 0.124115 118.478 0.124115ZM112.919 4.42833C112.919 4.09724 113.189 3.84892 113.5 3.84892H118.001C119.163 3.84892 119.661 4.44903 119.661 5.85617V18.893C119.661 20.3208 119.184 20.9002 118.001 20.9002H113.5C113.168 20.9002 112.919 20.6312 112.919 20.3208V4.42833Z" fill="#5436EA"/>
<path d="M138.619 1.30349C138.287 1.48973 138.038 1.75874 138.038 2.08983V19.017C138.038 20.4448 137.561 21.0243 136.379 21.0243H132.977C131.795 21.0243 131.297 20.4241 131.297 19.017V2.08983C131.297 1.75874 131.007 1.46903 130.716 1.30349L128.124 0.20674C127.813 0.0825795 127.335 0.372286 127.335 0.70338V19.1205C127.335 22.8246 129.119 24.7697 132.5 24.7697H136.856C140.278 24.7697 142.021 22.866 142.021 19.1205V0.70338C142.021 0.372286 141.564 0.0825795 141.233 0.20674L138.64 1.30349H138.619Z" fill="#5436EA"/>
</svg>
