<svg width="28" height="28" viewBox="0 0 28 28" fill="none" xmlns="http://www.w3.org/2000/svg">
<path d="M14 28C21.732 28 28 21.732 28 14C28 6.26801 21.732 0 14 0C6.26801 0 0 6.26801 0 14C0 21.732 6.26801 28 14 28Z" fill="#CCD0D6"/>
<path d="M7 20.3438C7.77925 17.3286 10.6177 15.0938 14 15.0938C17.3823 15.0938 20.2207 17.3286 21 20.3438" stroke="white" stroke-width="1.5" stroke-linecap="round"/>
<path d="M14 12.6875C15.5706 12.6875 16.8438 11.4143 16.8438 9.84375C16.8438 8.27319 15.5706 7 14 7C12.4294 7 11.1562 8.27319 11.1562 9.84375C11.1562 11.4143 12.4294 12.6875 14 12.6875Z" stroke="white" stroke-width="1.5"/>
</svg>
